<svg xmlns="http://www.w3.org/2000/svg" width="1000" height="210" viewBox="0 0 1000 210"><defs><linearGradient id="bg" x2="1" y2="1"><stop stop-color="#090a0e"/><stop offset=".5" stop-color="#24242a"/><stop offset="1" stop-color="#08090d"/></linearGradient><linearGradient id="a"><stop stop-color="#9EEBFF"/><stop offset="1" stop-color="#2878FF"/></linearGradient></defs><rect width="1000" height="210" rx="20" fill="url(#bg)"/><g opacity=".18" stroke="#fff"><path d="M0 30L250 210M40 0L300 210M1000 35L760 210M960 0L700 210"/></g><g transform="translate(55 18)"><path d="M70 160Q35 90 58 38Q100 -8 150 28Q185 65 168 125Q145 168 70 160Z" fill="#D8DBE2"/><path d="M45 80L65 5L95 45L118 0L130 47L170 12L157 67L200 55L166 92L190 110L145 108L156 155L115 123L88 170L76 120L34 145L53 105L12 93Z" fill="#171922"/><path d="M54 87Q105 50 158 87Q105 125 54 87Z" fill="#090a0e" stroke="#fff" stroke-width="5"/><ellipse cx="106" cy="87" rx="28" ry="32" fill="url(#a)"/><ellipse cx="106" cy="87" rx="9" ry="17" fill="#06101a"/><circle cx="115" cy="77" r="6" fill="#fff"/></g><rect x="270" y="34" width="470" height="142" rx="18" fill="#080a0f" stroke="#6FE7FF" stroke-opacity=".7" stroke-width="2"/><text x="505" y="88" text-anchor="middle" fill="#fff" font-family="Arial" font-size="34" font-weight="900" letter-spacing="4">ABOUT ME</text><text x="505" y="120" text-anchor="middle" fill="#B8C0CC" font-family="Arial" font-size="14">Cloud • DevOps • Automation</text><text x="505" y="146" text-anchor="middle" fill="#65DFFF" font-family="Arial" font-size="11" letter-spacing="2">CODE / AUTOMATE / FIX / REPEAT</text><g transform="translate(820 22)"><circle cx="60" cy="60" r="55" fill="#7D1830" opacity=".25"/><path d="M25 105Q15 60 28 27Q60 -5 95 25Q113 57 100 101Z" fill="#70463F"/><path d="M18 55L32 12L52 40L66 3L75 42L106 22L92 62L112 72L82 78L91 111L62 90L42 119L39 84L14 94L28 70Z" fill="#211217"/><path d="M26 66Q60 43 94 66Q60 90 26 66Z" fill="#08080b" stroke="#ffd6d6" stroke-width="4"/><ellipse cx="60" cy="66" rx="19" ry="23" fill="#E52E45"/><ellipse cx="60" cy="66" rx="6" ry="13" fill="#18050a"/></g><rect x="2" y="2" width="996" height="206" rx="19" fill="none" stroke="#fff" stroke-opacity=".2"/></svg>