<svg xmlns="http://www.w3.org/2000/svg" width="1000" height="210" viewBox="0 0 1000 210"><defs><linearGradient id="b" x2="1"><stop stop-color="#09090d"/><stop offset=".5" stop-color="#21172A"/><stop offset="1" stop-color="#09090d"/></linearGradient></defs><rect width="1000" height="210" rx="20" fill="url(#b)"/><g opacity=".13" stroke="#fff"><path d="M0 30L260 200M0 75L190 210M1000 30L740 200M1000 75L810 210"/></g><g transform="translate(48 17)"><path d="M66 166Q30 115 47 48Q72 5 116 22Q163 4 180 51Q187 115 150 166Z" fill="#8A6A72"/><path d="M35 75L55 7L82 43L102 0L117 46L160 12L149 63L194 48L161 86L186 107L142 103L155 154L112 120L85 173L76 121L33 146L50 103L8 95L42 72Z" fill="#151017"/><path d="M42 84Q108 49 174 84Q108 120 42 84Z" fill="#07070a" stroke="#FFE5EA" stroke-width="5"/><ellipse cx="108" cy="84" rx="30" ry="34" fill="#F04461"/><ellipse cx="108" cy="84" rx="8" ry="17" fill="#1b050a"/><circle cx="119" cy="72" r="6" fill="#fff"/></g><rect x="255" y="34" width="490" height="142" rx="18" fill="#090b10" stroke="#FF536B" stroke-width="2" stroke-opacity=".7"/><text x="500" y="87" text-anchor="middle" fill="#fff" font-family="Arial" font-size="33" font-weight="900" letter-spacing="4">CONTRIBUTION ACTIVITY</text><text x="500" y="119" text-anchor="middle" fill="#C7CBD2" font-family="Arial" font-size="14">Learn • Build • Contribute</text><text x="500" y="147" text-anchor="middle" fill="#FF6C7D" font-family="Arial" font-size="11" letter-spacing="2">CONSISTENCY IS THE POWER-UP</text><g transform="translate(820 20)"><circle cx="60" cy="66" r="58" fill="#FF3350" opacity=".11"/><path d="M28 112Q12 65 28 28Q60 0 94 29Q111 67 96 112Z" fill="#694A51"/><path d="M17 58L34 8L52 40L68 0L78 44L107 21L97 63L119 73L88 80L95 114L62 92L42 122L40 85L14 96L28 70Z" fill="#141015"/><path d="M28 67Q60 44 94 67Q60 90 28 67Z" fill="#08080b" stroke="#ffe1e1" stroke-width="4"/><ellipse cx="61" cy="67" rx="19" ry="23" fill="#EF334F"/><ellipse cx="61" cy="67" rx="6" ry="13" fill="#1a0508"/></g><rect x="2" y="2" width="996" height="206" rx="19" fill="none" stroke="#fff" stroke-opacity=".18"/></svg>